<svg width="16" height="14" viewBox="0 0 16 14" fill="none" xmlns="http://www.w3.org/2000/svg">
<path d="M4.36629 0.468797H14.5225C14.8333 0.468797 15.1314 0.577447 15.3512 0.770844C15.571 0.96424 15.6944 1.22654 15.6944 1.50005V10.4375C15.6944 10.7111 15.571 10.9734 15.3512 11.1668C15.1314 11.3601 14.8333 11.4688 14.5225 11.4688C14.2117 11.4688 13.9137 11.3601 13.6939 11.1668C13.4741 10.9734 13.3507 10.7111 13.3507 10.4375V3.99223L2.85067 13.2297C2.74166 13.3256 2.61225 13.4017 2.46982 13.4536C2.3274 13.5055 2.17475 13.5322 2.02059 13.5322C1.70925 13.5322 1.41066 13.4234 1.19051 13.2297C0.970359 13.0359 0.84668 12.7732 0.84668 12.4992C0.84668 12.2252 0.970359 11.9625 1.19051 11.7687L11.6905 2.5313H4.36629C4.05549 2.5313 3.75742 2.42265 3.53765 2.22925C3.31788 2.03585 3.19442 1.77355 3.19442 1.50005C3.19442 1.22654 3.31788 0.96424 3.53765 0.770844C3.75742 0.577447 4.05549 0.468797 4.36629 0.468797Z" fill="black"/>
</svg>