<svg width="33" height="32" viewBox="0 0 33 32" fill="none" xmlns="http://www.w3.org/2000/svg">
<path d="M26.7725 3.5H24.2725V3C24.2725 2.60218 24.1144 2.22064 23.8331 1.93934C23.5518 1.65804 23.1703 1.5 22.7725 1.5C22.3746 1.5 21.9931 1.65804 21.7118 1.93934C21.4305 2.22064 21.2725 2.60218 21.2725 3V3.5H12.2725V3C12.2725 2.60218 12.1144 2.22064 11.8331 1.93934C11.5518 1.65804 11.1703 1.5 10.7725 1.5C10.3746 1.5 9.9931 1.65804 9.7118 1.93934C9.4305 2.22064 9.27246 2.60218 9.27246 3V3.5H6.77246C6.10942 3.5 5.47353 3.76339 5.00469 4.23223C4.53585 4.70107 4.27246 5.33696 4.27246 6V26C4.27246 26.663 4.53585 27.2989 5.00469 27.7678C5.47353 28.2366 6.10942 28.5 6.77246 28.5H26.7725C27.4355 28.5 28.0714 28.2366 28.5402 27.7678C29.0091 27.2989 29.2725 26.663 29.2725 26V6C29.2725 5.33696 29.0091 4.70107 28.5402 4.23223C28.0714 3.76339 27.4355 3.5 26.7725 3.5ZM9.27246 6.5C9.27246 6.89782 9.4305 7.27936 9.7118 7.56066C9.9931 7.84196 10.3746 8 10.7725 8C11.1703 8 11.5518 7.84196 11.8331 7.56066C12.1144 7.27936 12.2725 6.89782 12.2725 6.5H21.2725C21.2725 6.89782 21.4305 7.27936 21.7118 7.56066C21.9931 7.84196 22.3746 8 22.7725 8C23.1703 8 23.5518 7.84196 23.8331 7.56066C24.1144 7.27936 24.2725 6.89782 24.2725 6.5H26.2725V9.5H7.27246V6.5H9.27246ZM7.27246 25.5V12.5H26.2725V25.5H7.27246Z" fill="#0090FF"/>
</svg>
